<?xml version="1.0" encoding="utf-8"?>
<!-- Generator: Adobe Illustrator 24.1.1, SVG Export Plug-In . SVG Version: 6.00 Build 0)  -->
<svg version="1.1" id="Layer_1" xmlns="http://www.w3.org/2000/svg" xmlns:xlink="http://www.w3.org/1999/xlink" x="0px" y="0px"
	 viewBox="0 0 970.1 458.5" style="enable-background:new 0 0 970.1 458.5;" xml:space="preserve">
<style type="text/css">
	.st0{fill-rule:evenodd;clip-rule:evenodd;}
</style>
<g>
	<path class="st0" d="M913.5,217.3h-92.2c-16.7,0-30.3,13.6-30.3,30.3V327c0,16.7,13.6,30.3,30.3,30.3h92.2
		c16.7,0,30.3-13.6,30.3-30.3v-79.4C943.8,230.9,930.2,217.3,913.5,217.3L913.5,217.3z M574.6,112.8h-11.3v-2
		c3.1,0.1,5.1-0.6,3.7-3.3c-2.1-4.1,7-3.9,8.3-3C577.7,106.1,576.1,110.6,574.6,112.8L574.6,112.8z M559.1,115.6h13.7
		c-1.5,2.3-5.8,10.1-8.6,10.1C563.2,124.2,559.5,119.1,559.1,115.6L559.1,115.6z M821.7,247.6H913V327h-91.2V247.6L821.7,247.6z
		 M634.5,247.6h127v0c0-16.7-13.6-30.3-30.3-30.3h-97.5c-16.7,0-30.3,13.6-30.3,30.3V327c0,16.7,13.6,30.3,30.3,30.3h97.5
		c16.7,0,30.3-13.6,30.3-30.3v-52.4H658.4v0c0,12.9,10.5,23.4,23.4,23.4h50.8v29h-98.1V247.6L634.5,247.6z M238,247.6h121.2v0
		c0-16.7-13.6-30.3-30.3-30.3h-93.8c-16.7,0-30.3,13.6-30.3,30.3v24.6c0,16.7,13.6,30.3,30.3,30.3h94.1V327H204.8l0,0
		c0,16.7,13.6,30.3,30.3,30.3H332c16.7,0,30.3-13.6,30.3-30.3v-24.6c0-16.7-13.6-30.3-30.3-30.3H238V247.6L238,247.6z M63.4,247.6
		h114.4v0c0-16.7-13.6-30.3-30.3-30.3H55.4c-16.7,0-30.3,13.6-30.3,30.3V327c0,16.7,13.6,30.3,30.3,30.3h92.2
		c16.7,0,30.3-13.6,30.3-30.3l0,0H63.4V247.6L63.4,247.6z M603.8,99c-0.6,0.3-1.3,0.6-2.3,0.8c-4.3,6.1-1.7,5.4-9.3,10.5
		c0,10.3,0.3,11.4,2.7,20.4c0.1,0.2,0,0.4-0.1,0.6c-0.1,0.2-0.3,0.3-0.5,0.4c-1.8,0.4-4.5,1.1-6,1.4c0,0.3,0.8,6.1,0,10.5
		c-1.3,6.8-17.5,21.6-21.3,22.4c-5.3,1.1-11.3-3.7-20.6-7.8c-2.6-1.1-11.2-6.8-15.7-8.3c-3.7-1.2-7.5,7.9-2.8,10.3
		c2.2,1.1,5.6,2.7,6.7,5.5c3.2,8.4-0.5,40.7-7.2,47.2c-3.2,0-5.8-2.9-8.2-2.2c-4.2,2.3-1.5,15.1,0,17.4
		c25.8,26.6,22.8,46.2,33.7,60.9c5,0,1.7,5.3,5.5,11.5c1,3.2-0.3,8.6-0.8,10.7c0,2.7,0,5.3,0,8c-0.3,0.8-0.6,1.7-0.8,2.5
		c0,2.3,0,4.7,0,7c-0.8,3.4-1.6,8-2.3,11.2c-1.5,6.7,4.4,12,0.8,18.4c0,3.9,0,3.2-2.3,6.3c0,6.1-1.4,19,0,23.5
		c1,3.2,12.5,16.6,15.4,17.9c6.9,3.1,17.2,2.4,13.9,13.4c-20.3,6.2-33.3-3.5-44.1-3.7l-0.5,1.9c-6.9,0-12.5-1.7-14-2.2
		c0-1.9,2.2-16.2,3-18.5c0.8-1.2,1.6-2.4,2.3-3.7c0.8-2.4-0.9-20.4-1-25.2c-4.3-3.2-5.2-12.9-5.2-18.2c-1.2-4.1-1.2-9-1.5-14.4
		c-0.1-2.5-1.6-6.2-0.7-9.3c0.6-2.1,3.1-3.1,3.7-4.8c0-2,0-4,0-6c1.1-6.3,0.8-9.2-3-13c-9.5,0.1-10.8,0.6-16-7.5
		c-1.6-2.5-14.9-23.5-16.2-24c-11.1-4.8-8.9-2.9-13.7-11.5c-0.2,0-3.1,1-5.7,4.9c-4,5.9-11,25.1-13,31.8c-1.1,3.8,0,7.9-1.7,11
		c-1.2,2.3-5.2,3-6,4.5c-3.9,7-1,6.4-8.3,11.3c-1.3,1.7-1.4,4.3-2.3,6.3c-0.6,0.8-1.1,1.6-1.7,2.3c-1.2,2.7,1.3,7.5,0.8,9.2
		c-1.3,4.4-3,8.8-4.7,12.9c-3.4,8-2.9,18.7-6.3,23.6c-1.7,2.5-5.9,0.1-9,2.1c-0.2,1.7-5.2,13.2-6.2,16.4c0,6.1,0,12.1,0,18.2
		c0.9,3.1,3.5,6,2.8,9.9c-0.8,4.1-15.2,4.1-23,2.9c-5.2-0.8-6.8-4.6-6.7-9.1c0.1-5.3,10.7-39.4,10.1-41.7
		c-8.1-9.1,2.2-18.4,5.2-26.9c1.5-4.1,0.6-9.9,2.2-13.7c2.8-5.2,5.7-10.3,8.5-15.5c5.2-4.9,2.9-5.1,5.7-9.5
		c2.4-3.8,5.4-6.4,3.7-12.2c-3.4-11.7,4-28.3,4.5-40.6c-1.3-1.4-5.8-1-6.4-4.7c-1.1-7.6,2.9-21.1,5.4-22.4c1.1-0.6,2.4-0.1,3.3-0.7
		c0-5.7-5.7-37.5-1.4-39.1c2.7-1,8.8-1.5,9.9-2c-0.1-1.4-1-4.2-2.1-4.4c-1.9-0.3-5.8-1-8.9-1.7c-9.5-2.2-0.7-39.6-0.6-39.8
		c2.6-3.4,14.7,1.2,16.2-4.7c4-5.2-3.1-25,10.7-49.5c4.7-8.3,13.6-16.6,24-13.1c3.5,1.2,1.4,6.2,7.5,0.8c0.2-3.1-1.3-5.8-2.2-8.3
		c-10.2-30.4,24.4-46.9,48.6-29.5c2.7,1.1,4.3,1.6,6.3,3.2c1.3,6.9,8.2,19.2,1.3,27.2c-2.8,0.6-6.2,2.2-8.3,3.7c0,2.8,0.3,5.3,0.8,7
		c0.5,1.5,1.3,2.1-0.9,3c-0.3,0.1-0.2,1,0,1.4c5.6,1.1,11.7-1,15.4-2.6h4.5v-5.7h1.2h1v-4.5h2.2V79h5.6v2.4h83.4v4.3h3.7V69.9h3.1
		v12.9h7.1v7.4h22.1V88h3.7v1h10.4v6.1h-10.4v1h-3.7v-2.2h-22.1v2.2c-3.2,0-6.5,0-9.7,0v-1.5h-4.2V99H603.8L603.8,99z"/>
</g>
</svg>
