<?xml version="1.0" encoding="utf-8"?>
<!-- Generator: Adobe Illustrator 24.1.1, SVG Export Plug-In . SVG Version: 6.00 Build 0)  -->
<svg version="1.1" id="Layer_1" xmlns="http://www.w3.org/2000/svg" xmlns:xlink="http://www.w3.org/1999/xlink" x="0px" y="0px"
	 viewBox="0 0 856.1 946.1" style="enable-background:new 0 0 856.1 946.1;" xml:space="preserve">
<style type="text/css">
	.st0{fill-rule:evenodd;clip-rule:evenodd;fill:#FFFFFF;}
</style>
<g>
	<path class="st0" d="M95.1,755.5l0.6,90.3c9.8,17.8,54.1,8.4,63-13.3C168.8,807.3,169.6,750.3,95.1,755.5L95.1,755.5z M60.9,747
		v3.3c0,0,13.1-2,15.3,6.4c0.2,5.6-0.3,93.6-0.3,93.6s-0.7,8-12.4,7.7c0.1,1.2,0,1.6,0,1.6s28.8-0.7,41.7,1.7
		c93.5,16.9,102.6-112.8,26-113.6L60.9,747L60.9,747z"/>
	<path class="st0" d="M282.9,752.3c24.8-1.7,46,23.5,46,49.1c0.6,26.3-6.2,51.5-32.3,53.9c-21.7,0-43.8-10.3-48.9-51.2
		C247.7,778.5,253.9,754.2,282.9,752.3L282.9,752.3z M288,744.8c31.9,0,62.5,19.2,62.5,56.7c0,37.5-29.7,60.7-61.6,60.7
		s-62-20.4-62-58C227,766.8,256.2,744.8,288,744.8L288,744.8z"/>
	<path class="st0" d="M391.7,745.1l-3.4,15.7c0,0-1.2,3.1,0.2,8.2c1.3-3.6,1.6-9.1,9.4-12.2c8-0.3,31.5-0.3,31.5-0.3L429,851
		c0,0-0.2,8.3-11.9,7.2c-0.1,1.4-0.1,1.7-0.1,1.7l48.2-0.2l-0.1-1.8c0,0-15,2.2-15.8-6.9c-0.1-4.8-0.9-94.7-0.9-94.7l27.8,0.7
		c0,0,9.5,0.2,9.4,11.9c1.3,0.8,2.1-0.3,2.2-1.7c0.1-1.3,0.6-15.9,0.6-15.9s2.3-5-0.7-5.4c-2.9,1-6.2,1.6-8.3,1.6
		c-2.1,0-80.5-0.1-80.5-0.1S395.3,745.4,391.7,745.1L391.7,745.1z"/>
	<path class="st0" d="M574,775.5l-20,51.5l38.4-0.4L574,775.5L574,775.5z M576.5,744.6l-43.1,105.9c0,0-4.4,8.8-16.4,8
		c0,0.9-0.1,1.4-0.1,1.4l39.4,0.1l-0.1-2.1c0,0-12.7,1-11-5.3c1.6-5.3,6.2-18.1,6.2-18.1l44.1,0.1l8.7,20.5c0,0,1,2.4-3.1,2.7
		c0,1.6,0,1.7,0,1.7l39.3,0.6l-0.1-2.6c0,0-9.4,2.7-14.7-4.6c-3.9-6.6-9.4-18.5-9.4-18.5s6,0.6,9.4-1.6c3.6-1.4,9.9-3.3,17.7-3.3
		c1-1.2-0.2-2.6-3.1-2.8c-3-0.2-27.2-0.2-27.2-0.2l-33-81.7C579.8,745,578,739.7,576.5,744.6L576.5,744.6z"/>
	<path class="st0" d="M725.9,776.1c0,0-3.6-19.5-2.7-24.2c30.1-17.7,96.4-2.7,53.5,58.6c-4.4,5.6-21.8,24.2-38.6,36.6
		c12.3,0.2,34.2-0.6,39.3-0.8c13.4-0.5,13-16.6,17.6-16.7l-4,23.6c0,0-0.1,7-8.2,6.3c-8.1-0.1-64.3,0.2-64.3,0.2s-5.3,0.1-0.4-4.1
		c8.1-7.6,53.3-42.5,51.9-78.9C768.8,745.7,732.1,741.2,725.9,776.1L725.9,776.1z"/>
	<path class="st0" d="M221.5,445.8c6.6,4.1,10.8,8.1,17.1,13.2l51.3,47.6c10.7,10.2,38.1,37.9,48.7,50.1c7.2,8.4,10.3,9.3,15.6,17.5
		c-1.9,0.7-25.9,6.2-39.9,11c-29,10-55.5,26-80.8,17.4c-3.8-1.3-21-17.7-28.9-23.3c-4.7-3.3-9.1-6.4-14.5-10.2
		c-15.4-10.8-19.8-3.3,0.6-51c5.3-12.5,9.9-23.7,15-35.9C210.2,471.8,216.3,454.5,221.5,445.8L221.5,445.8z M590.3,158.2
		c10.6,3.7,36.2,18.3,42.4,26.2c5.3,6.6,3.8,7.2,1.8,16.8l-10.4,81.5c-14.4,0.5-10.3-1.2-19.2-7.2c-15-10.1-66.4-48.1-82.9-61.4
		l-31.8-25.5c2.3-2.2-0.8-1,4.5-2.4l47-10.6C566.2,169.4,570,167.8,590.3,158.2L590.3,158.2z M168.8,174.6
		c10.8-6,16.5-1.5,34.7-14.6c4.9-3.5,16.1-3.2,22.9-2.2c7,1,23.3,14.5,30.7,19.1c4.3,2.6,23.7,17.4,26.8,22.6l9.6,15.4
		c13.2,0.6,10.9-0.1,27.5,12.1L480.2,332c34.2,23.8,74.2,48.1,108.6,72.1l98.1,64.2c-2.8,6.1-6.1,27.1-8,35.5
		c-8.5,38.6-19.2,54.9-36.5,92c-24.9,1-44.5,0.8-68.8,0.4c-7.9-0.1-5.9,1.5-10.2-2.6c-14.2-13.8-40.1-44-54.5-58
		c-5-4.8-9.4-9.3-14.4-14.6c-39.8-42.4-21-29.6-28.7-40.2l-80-75.7c-18.4-17.9-34.9-37.1-53.9-57.2c-4.9-5.2-7.3-10-12.4-14.7
		l-1.4-1.3c-1.4-1.3-0.8-0.8-2.1-2.2l-23.3-26.4c-4.1-3.8-3.7-3.7-6.7-7.1l-20.9-21.6c-4.6-4.8-8.2-9.8-12.6-15l-20-21.2
		c-3-3-5.1-3.9-8.1-7c-9.5-9.9-17.5-19.4-27.1-29.3C189.7,194.3,171,179,168.8,174.6L168.8,174.6z M264.8,56.4l-164.3,3.4
		c-8.9,32.7-0.1,16.1,0,50.3l0,61.8c-1.3,17.9-6,26.9-6,50.8c0,8-1.8,26.5,2.1,32.8c6.8,11.1,6.7,20.6,9.6,36.7
		c2.6,14.3,5.3,12.8-1.1,23.6l-3,27.3l14,13.7l0.1,24c-8.4,7.7,1,2.2-16.7,15l1.6,72.5l17.4,12.6l-3.6,61.8
		c-18.4,13.2-14.4,29.1-13.8,45.5l2.2,61.6l-4,31.6c41.1,10.3,32.1,7.1,79.1,7.1c41.5,0,36.2,0.4,77.2-4.6l1.1,7
		c6.4-0.4,12.9-0.8,19.2-1.4c17.5-1.7,10.5-3.7,16.5-5.9c4.3-1.6,51.2,9.3,58.8,10.9c4.2-4.7,2.1-2.8,7.9-6.6
		c3.2,6.7,16.7,22,22.2,28.7l17-15.9l29.7,11.5l8.7-7.3c3.4,4,5.5,9,11.5,9.8c8.8,1.2,10.2-13.4,29.7-13.8l112.7-3.8
		c1.4-1.4,2.3-2.2,3.9-3.7l5.8-4.7c7.4,4.5,10.6,8.8,20.7,8.1c31.1-2.1,14.8,7.5,54.9,5.4c6.9-0.4,5.2-2.1,11.3-4.2l13-2
		c-2.8-7.6-4.6-6.5-10.3-12.2l71.4,14.4c-1-84-0.8-186.5,0.3-272.9l-19.2,1.4c0.7-5.6,9.1-3.5,9.7-14.8c0.8-14.2,0.7-62.9-1.4-73.3
		c-1.1-5.3-14.6-20.8-18.2-25.6c4.3-11.7,4.7-10.9,12.7-20.5c-0.7-6.3-2.1-8-4.8-15.1l20.9-6.9c0.2-12,1.6-60.3,0.8-75.6l-8.5-82.4
		l6.5-20.6L760,71c-18.1-10.4-15.7-11.6-28.2-11.5c-11.3,0.1-26.4-0.5-37.2-3c-13.9-3.2-10.1-5.4-25.3,10.2l-6.9-15
		c-21.7-1.6-91.2-7.7-107.8-7.7c-21.1,0-18.1,1.6-25.2,25.6L499,72.7l-4-13.1l-27.5-0.3l2.9-3.2c5.4-5.1,3.5-3.1,7.7-12.1l-110.6,0
		c-3.7,6.8-10.3,11.9-18.2,14.5c-11,3.7-5.6-2.2-12.5,4c-5.2,4.7-6.1,4.4-14.3,4.2c-10.9-0.2-22.1-0.6-33-1
		c-5-0.2-10.5,0.3-15.4-0.8C266.7,63.1,268.8,61.2,264.8,56.4L264.8,56.4z"/>
</g>
</svg>
