<?xml version="1.0" encoding="utf-8"?>
<!-- Generator: Adobe Illustrator 24.1.1, SVG Export Plug-In . SVG Version: 6.00 Build 0)  -->
<svg version="1.1" xmlns="http://www.w3.org/2000/svg" xmlns:xlink="http://www.w3.org/1999/xlink" x="0px" y="0px"
	 viewBox="0 0 1920 1080" style="enable-background:new 0 0 1920 1080;" xml:space="preserve">
<style type="text/css">
	.st0{fill:none;}
	.st1{fill:#FFFFFF;}
</style>
<g id="Layer_3">
	<g>
		<path d="M755.1,652.3l-19.7,50.1h-17.8l-14.7-37.7L688,702.4h-17.7l-19.7-50.1h13.9l14.8,39.3l15.7-39.3h15.8l15.7,39.4l14.7-39.4
			H755.1z"/>
		<path d="M789.3,677.3c0-16.6,9.4-25.7,31.5-25.7c22,0,31.5,9.2,31.5,25.7c0,16.6-9.5,25.8-31.5,25.8
			C798.7,703.1,789.3,694,789.3,677.3z M839.3,677.3c0-10.2-5.2-14.9-18.6-14.9s-18.6,4.7-18.6,14.9c0,10.3,5.2,15,18.6,15
			C834.1,692.3,839.3,687.5,839.3,677.3z"/>
		<path d="M944.1,691.6v10.8h-51.5v-50.1h12.9v39.3H944.1z"/>
		<path d="M1037.7,652.3l-25.8,50.1h-17.6l-25.7-50.1H983l20.1,40.6l20.1-40.6H1037.7z"/>
		<path d="M1089.4,662.6v10.2h40.1v9.3h-40.1v10.2h40.1v10.2h-52.9v-50.1h52.9v10.2H1089.4z"/>
		<path d="M1182.1,685.2c0,5.3,4.3,7.7,20.6,7.7c13.5,0,17.6-1.5,17.6-5.4c0-4.2-2.9-4.9-19.1-5.7c-21.8-1-30.5-4.4-30.5-15.7
			c0-11,11.2-14.5,30-14.5c18.9,0,30.3,4.7,30.3,17.1h-12.9c0-5.5-5.5-6.9-18.9-6.9c-12.7,0-15.7,1.2-15.7,4.9c0,3.9,3,4.6,17.6,5.4
			c19.7,1.1,32,2.1,32,14.8c0,13.4-12.7,16.1-31.2,16.1c-20.5,0-32.8-3.5-32.8-18H1182.1z"/>
	</g>
</g>
<g id="Layer_2">
	<g>
		<path class="st0" d="M1346.8,421.7H1269v119.2h77.8c40.7,0,68.3-8.7,68.3-59.6C1415.1,430.4,1387.6,421.7,1346.8,421.7z"/>
		<polygon points="768.1,541.5 702.2,376.5 636.1,376.5 570.5,541.2 508.5,376.5 450.4,376.5 533.1,586.1 607.3,586.1 669.3,428.3 
			731,586.1 805.5,586.1 888.2,376.5 829.8,376.5 		"/>
		<rect x="900.7" y="376.5" width="53.9" height="209.6"/>
		<path d="M1133.6,540.9c-6.4,8.1-11.4,14.3-11.4,14.3s2.5-6.2,6-14.3h-95.7V376.5h-53.9v209.6h163.9c2.9-8.3,11.8-33.5,17.3-45.2
			H1133.6z"/>
		<path d="M1194.2,586.1v-16.7c-4.6,6.1-8.7,12-11.6,16.7H1194.2z"/>
		<path d="M1194.2,540.9h-20.3c-10.3,13.5-26.2,35.4-31.2,45.2h37.3c4-9,9.6-21.4,14.2-31.1V540.9z"/>
		<path d="M1367.2,376.5h-152.1V389c0.2-0.1,0.4-0.2,0.5-0.2c0,0-0.2,0.1-0.5,0.4v24.7c10.4-9,27.4-20.2,27.4-20.2
			s-14.3,18.4-27.4,35.4v38.4c2.8-3.6,5-7,6.2-9.6c4.5-10.2,39.5-36.3,39.5-36.3s-22.4,27.7-26.9,35.5c-3.1,5.5-12.5,18.4-18.7,27
			v37c2.7-2.7,9.8-6.1,12-12.7c2.3-7,37.5-43.9,40.8-46.8c0,0-48.5,72.7-49.9,75.1c-0.3,0.6-1.4,2.1-2.8,4.1v45.3h152.1
			c54.2,0,101.8-33.5,101.8-104.8S1421.4,376.5,1367.2,376.5z M1346.8,540.9H1269V421.7h77.8c40.7,0,68.3,8.7,68.3,59.6
			C1415.1,532.2,1387.6,540.9,1346.8,540.9z"/>
		<path class="st1" d="M1180,586.1h2.5c2.9-4.7,7.1-10.6,11.6-16.7V555C1189.6,564.7,1184,577.1,1180,586.1z"/>
		<path class="st1" d="M1215.1,389v0.2c0.3-0.3,0.5-0.4,0.5-0.4C1215.5,388.8,1215.3,388.9,1215.1,389z"/>
	</g>
</g>
</svg>
